<?xml version="1.0" standalone="no"?>
<!DOCTYPE svg PUBLIC "-//W3C//DTD SVG 20010904//EN"
 "http://www.w3.org/TR/2001/REC-SVG-20010904/DTD/svg10.dtd">
<svg version="1.0" xmlns="http://www.w3.org/2000/svg"
 width="512.000000pt" height="512.000000pt" viewBox="0 0 512.000000 512.000000"
 preserveAspectRatio="xMidYMid meet">

<g transform="translate(0.000000,512.000000) scale(0.100000,-0.100000)"
fill="#000000" stroke="none">
<path d="M2215 3971 c-35 -16 -1184 -1040 -1363 -1214 -77 -76 -96 -120 -90
-216 3 -58 9 -77 34 -113 16 -24 322 -315 679 -646 474 -440 664 -610 700
-628 91 -43 205 -25 278 44 94 88 100 252 14 343 -17 19 -209 199 -426 399
l-393 365 1268 5 1269 5 40 22 c90 48 135 123 135 223 0 100 -45 175 -135 223
l-40 22 -1262 5 -1263 5 429 387 c475 428 471 424 471 539 -1 104 -53 189
-145 230 -53 24 -147 24 -200 0z"/>
</g>
</svg>
