<?xml version="1.0" standalone="no"?>
<!DOCTYPE svg PUBLIC "-//W3C//DTD SVG 20010904//EN"
 "http://www.w3.org/TR/2001/REC-SVG-20010904/DTD/svg10.dtd">
<svg version="1.0" xmlns="http://www.w3.org/2000/svg"
 width="512.000000pt" height="512.000000pt" viewBox="0 0 512.000000 512.000000"
 preserveAspectRatio="xMidYMid meet">

<g transform="translate(0.000000,512.000000) scale(0.100000,-0.100000)"
fill="#000000" stroke="none">
<path d="M2705 3971 c-92 -41 -144 -126 -145 -230 0 -115 -4 -111 471 -539
l429 -387 -1263 -5 -1262 -5 -40 -22 c-90 -48 -135 -123 -135 -223 0 -100 45
-175 135 -223 l40 -22 1269 -5 1268 -5 -393 -365 c-217 -200 -409 -380 -426
-399 -86 -91 -80 -255 14 -343 73 -69 187 -87 278 -44 36 18 226 188 700 628
357 331 663 622 679 646 25 36 31 55 34 113 6 96 -13 140 -90 216 -179 174
-1328 1198 -1363 1214 -53 24 -147 24 -200 0z"/>
</g>
</svg>
